#Model taken from TurboSquid user PaulsenDesign  @http://www.turbosquid.com/3d-models/free-3ds-model-trees-scene/961487
#
#

mtllib Cartoon_low_poly_tree_1.mtl


#
# Tree_1 Mesh
#
g Tree_1 Mesh


#
# Mesh_Treetop_1
#
usemtl Mesh_Treetop_1

v -1.140213 -0.745900 1.351240
v 1.579387 -0.750600 1.331240
v 1.194686 2.984700 1.038440
v -0.759913 2.181800 1.030240
v 1.599487 -0.842600 -1.779160
v 1.209486 2.927600 -1.269560
v -1.120213 -0.837900 -1.759160
v -0.745013 2.124700 -1.277760
v 0.096787 7.047900 1.437640
v -1.734213 7.047900 1.437640
v 0.096787 7.047900 -0.393360
v -1.734213 7.047900 -0.393360
v -1.267113 12.712300 1.558340
v -2.561614 12.712300 1.558340
v -1.267113 12.712300 0.263840
v -2.561614 12.712300 0.263840
v -1.984313 14.125800 1.452940
v -0.900612 14.125800 1.452940
v 3.023687 23.942301 0.782040
v 2.313687 23.942301 0.782040
v -0.900612 14.125800 0.369240
v 3.023687 23.942301 0.072040
v -1.984313 14.125800 0.369240
v 2.313687 23.942301 0.072040
v -7.787210 19.236601 0.242740
v -7.787210 19.236601 0.611440
v -8.442709 18.850100 0.190140
v -8.442709 18.850100 0.663940
v -10.917313 22.958099 0.402140
v -10.917313 22.958099 0.451940
v -11.186514 22.799400 0.430440
v -11.186514 22.799400 0.423740
v -9.989613 29.906799 -2.352660
v -13.121815 28.010000 -3.022160
v -9.747211 28.364300 1.069140
v -14.937214 26.297100 0.221840
v -15.774717 29.579599 2.608540
v -13.245117 27.315800 4.808439
v -7.207409 29.813601 -0.952160
v -9.475910 27.466801 4.015140
v -6.894810 27.880199 3.195140
v -6.440510 27.692101 -4.218760
v -3.880013 25.680300 1.410340
v -5.645208 25.833599 -2.952060
v -10.606812 29.147800 -5.895761
v -9.331913 25.275499 -5.885160
v -13.019917 25.179399 -5.660961
v -13.604614 26.425100 -2.739360
v -16.945318 23.559000 -1.680160
v -16.292021 24.574200 2.066540
v -13.999212 20.888100 -1.336860
v -16.391417 20.602200 3.492740
v -14.534315 23.549601 4.611740
v -13.548714 22.964300 6.212639
v -10.186211 25.346300 6.980639
v -13.201015 22.105600 7.994539
v -10.104210 21.935499 7.200239
v -6.413307 25.738600 5.872639
v -4.473511 24.919300 1.297140
v -6.195810 21.854300 4.799439
v -5.058613 19.215000 1.984640
v -4.997811 21.637400 -1.592160
v -5.339911 22.412800 -3.559161
v -4.586514 19.541401 -0.890060
v -7.571810 20.066099 -3.264760
v -9.369511 21.482800 -4.793860
v -12.745014 24.380699 -5.013061
v -11.942114 20.563801 -2.099060
v -9.679111 18.423401 2.353040
v -10.003910 18.211500 6.021939
v -13.117916 19.648701 4.612040
v -7.146210 19.991600 1.798740
v -8.503408 19.025600 -0.847360
v -12.572216 18.410101 1.003640
v 3.743387 24.119801 -6.179461
v -0.134114 23.337999 -5.221061
v 4.120387 26.512899 -2.856460
v -1.994112 25.998100 -2.140360
v -1.692414 30.084499 -4.073961
v 0.729587 30.393000 -0.386360
v 6.859487 24.689899 -4.925261
v 4.619586 28.771099 -0.391360
v 7.320187 27.553900 -0.834960
v 6.644886 20.369699 -4.566661
v 9.674788 24.022301 0.727840
v 7.202987 20.438601 -2.019760
v 2.372987 20.564699 -7.457659
v 2.741187 18.331200 -3.617960
v -1.134314 19.424299 -3.957761
v -1.000113 22.939199 -3.650061
v -5.083609 23.355499 -0.883660
v -3.580313 27.220301 0.268140
v -2.602513 21.610100 2.253440
v -4.473610 26.615801 4.755839
v -1.607314 28.663601 2.859640
v -0.477812 29.631001 4.416240
v 3.779287 30.688200 3.088640
v -0.062113 30.793800 6.231939
v 3.038487 29.181101 6.428139
v 7.686986 28.889000 2.688240
v 8.840986 23.687700 1.294640
v 6.776687 25.896200 5.800039
v 6.888887 21.650801 6.943639
v 7.029987 19.472200 2.754840
v 6.571487 18.092400 0.919140
v 7.039387 18.988701 5.165139
v 3.672787 17.767300 2.952240
v 1.908186 17.485001 0.530640
v -0.949513 19.568199 -2.817560
v -0.631213 20.213200 2.456740
v 1.877286 22.769501 7.196539
v 2.029287 26.198601 9.315240
v -1.098914 26.370501 6.741940
v 4.857987 22.387699 5.801539
v 2.789887 19.760500 5.088739
v -1.374913 22.222601 6.053539
vn -0.126452 0.991922 -0.009989
vn -0.721487 0.628656 -0.290255
vn -0.096054 0.948551 0.301702
vn -0.865642 0.363832 -0.343934
vn -0.724962 0.656030 0.209894
vn -0.096054 0.948551 0.301702
vn -0.724962 0.656030 0.209894
vn -0.103853 0.714246 0.692147
vn 0.255147 0.954855 0.152156
vn -0.096054 0.948551 0.301702
vn -0.002181 0.877525 0.479526
vn -0.096054 0.948551 0.301702
vn 0.458011 0.638285 0.618722
vn -0.126452 0.991923 -0.009989
vn 0.255147 0.954855 0.152156
vn 0.679659 0.454402 -0.575832
vn 0.976553 0.114930 0.182034
vn 0.255147 0.954855 0.152156
vn 0.679659 0.454402 -0.575833
vn 0.976553 0.114930 0.182034
vn 0.859975 0.048723 -0.508004
vn 0.679659 0.454402 -0.575832
vn -0.308890 0.571319 -0.760383
vn 0.679659 0.454402 -0.575832
vn 0.329914 -0.084499 -0.940222
vn -0.613920 -0.213304 -0.760002
vn -0.126452 0.991923 -0.009989
vn -0.308890 0.571319 -0.760383
vn -0.308890 0.571319 -0.760383
vn -0.856044 0.290948 -0.427244
vn -0.721487 0.628657 -0.290255
vn -0.721487 0.628657 -0.290255
vn -0.906810 0.119960 -0.404110
vn -0.986538 0.040703 0.158384
vn -0.483873 -0.682702 -0.547526
vn -0.830857 -0.479147 0.283010
vn -0.906810 0.119959 -0.404110
vn -0.986538 0.040703 0.158384
vn -0.778154 -0.075189 0.623556
vn -0.662209 0.285100 0.692963
vn -0.055081 0.524287 0.849758
vn -0.455904 0.074905 0.886871
vn -0.055081 0.524287 0.849758
vn 0.360391 -0.123340 0.924611
vn 0.545278 0.385969 0.744110
vn 0.874979 -0.119639 0.469147
vn 0.646667 -0.398182 0.650594
vn 0.764729 -0.553000 0.330727
vn 0.999631 -0.025682 0.008820
vn 0.724454 -0.151615 -0.672442
vn 0.603189 -0.765279 -0.224748
vn 0.603189 -0.765279 -0.224748
vn 0.106530 -0.780123 -0.616489
vn -0.105679 -0.565174 -0.818175
vn -0.635412 -0.442182 -0.633029
vn -0.296584 -0.751917 -0.588777
vn -0.635412 -0.442182 -0.633029
vn -0.662209 0.285100 0.692963
vn -0.986538 0.040703 0.158384
vn -0.662209 0.285099 0.692963
vn -0.103853 0.714246 0.692147
vn -0.724962 0.656030 0.209894
vn -0.055081 0.524287 0.849758
vn 0.545278 0.385969 0.744110
vn 0.545278 0.385969 0.744110
vn -0.055081 0.524287 0.849758
vn -0.002181 0.877525 0.479526
vn -0.103853 0.714246 0.692147
vn 0.999631 -0.025682 0.008820
vn 0.999631 -0.025682 0.008820
vn 0.859975 0.048723 -0.508004
vn 0.999631 -0.025682 0.008820
vn 0.458011 0.638285 0.618722
vn 0.106530 -0.780123 -0.616489
vn -0.105679 -0.565174 -0.818175
vn 0.724454 -0.151615 -0.672442
vn -0.613920 -0.213304 -0.760002
vn -0.105679 -0.565174 -0.818175
vn 0.724454 -0.151615 -0.672442
vn 0.329914 -0.084499 -0.940222
vn -0.483873 -0.682702 -0.547526
vn -0.906810 0.119960 -0.404110
vn -0.635412 -0.442182 -0.633029
vn -0.865642 0.363832 -0.343934
vn -0.906810 0.119960 -0.404110
vn -0.635412 -0.442182 -0.633029
vn -0.856044 0.290948 -0.427244
vn 0.133847 -0.990796 0.020221
vn 0.231944 -0.819161 0.524573
vn -0.516661 -0.754038 0.405571
vn 0.231944 -0.819161 0.524573
vn -0.455904 0.074905 0.886871
vn -0.516661 -0.754038 0.405571
vn -0.455904 0.074905 0.886871
vn -0.778154 -0.075189 0.623556
vn 0.235632 -0.955790 0.175907
vn 0.231944 -0.819161 0.524574
vn 0.231944 -0.819161 0.524574
vn 0.088826 -0.970800 -0.222838
vn 0.235632 -0.955790 0.175907
vn 0.106530 -0.780123 -0.616489
vn 0.235632 -0.955790 0.175907
vn 0.603189 -0.765279 -0.224748
vn 0.133847 -0.990796 0.020221
vn -0.280442 -0.937379 -0.206572
vn 0.088826 -0.970800 -0.222838
vn 0.088826 -0.970800 -0.222838
vn -0.296585 -0.751917 -0.588777
vn 0.106530 -0.780123 -0.616489
vn -0.830857 -0.479147 0.283010
vn -0.280442 -0.937379 -0.206572
vn -0.483873 -0.682702 -0.547526
vn 0.105555 0.470887 -0.875856
vn -0.589746 0.201979 -0.781924
vn 0.167396 0.712442 -0.681473
vn -0.797022 0.068796 -0.600020
vn -0.518495 0.645662 -0.560610
vn -0.589745 0.201979 -0.781924
vn 0.167396 0.712441 -0.681473
vn -0.518495 0.645662 -0.560610
vn 0.159151 0.943901 -0.289347
vn 0.486797 0.505610 -0.712311
vn 0.167396 0.712441 -0.681473
vn 0.265729 0.811589 -0.520299
vn 0.672913 0.716652 -0.183298
vn 0.680987 -0.446038 -0.580781
vn 0.992188 -0.016374 0.123674
vn 0.770405 -0.613422 -0.173754
vn -0.269644 -0.323813 -0.906883
vn 0.170016 -0.923644 -0.343478
vn 0.680987 -0.446038 -0.580781
vn -0.744375 -0.609368 -0.273087
vn 0.105555 0.470887 -0.875856
vn -0.589745 0.201979 -0.781924
vn -0.815949 -0.038202 -0.576861
vn -0.269644 -0.323813 -0.906883
vn -0.589745 0.201979 -0.781924
vn -0.901143 -0.084222 -0.425263
vn -0.919505 0.382161 -0.091995
vn -0.698354 -0.669578 0.252916
vn -0.872337 0.217643 0.437789
vn -0.901143 -0.084222 -0.425263
vn -0.681950 0.681900 0.264494
vn 0.159151 0.943901 -0.289347
vn -0.477624 0.878554 0.004208
vn 0.183841 0.982064 -0.041878
vn -0.300890 0.902422 0.308383
vn 0.183841 0.982064 -0.041878
vn 0.444986 0.656645 0.608937
vn 0.672913 0.716652 -0.183298
vn 0.715916 0.689895 0.107283
vn 0.879433 0.147670 0.452538
vn 0.619995 0.230034 0.750127
vn 0.654354 -0.142777 0.742587
vn 0.958340 -0.234634 0.162882
vn 0.571187 -0.814644 -0.100505
vn 0.373941 -0.679962 0.630730
vn 0.373941 -0.679962 0.630730
vn -0.161436 -0.909313 0.383521
vn -0.744375 -0.609368 -0.273087
vn -0.343821 -0.936377 0.070598
vn -0.800543 -0.599041 -0.016740
vn -0.539515 -0.779692 0.317811
vn -0.343821 -0.936377 0.070598
vn -0.800543 -0.599041 -0.016740
vn -0.681950 0.681900 0.264494
vn -0.518495 0.645662 -0.560610
vn -0.919505 0.382161 -0.091995
vn -0.797022 0.068796 -0.600020
vn 0.444986 0.656645 0.608937
vn 0.265729 0.811589 -0.520298
vn 0.183841 0.982064 -0.041878
vn 0.183841 0.982064 -0.041878
vn 0.159151 0.943901 -0.289347
vn 0.958340 -0.234634 0.162882
vn 0.770405 -0.613422 -0.173754
vn 0.992188 -0.016374 0.123674
vn 0.958340 -0.234634 0.162882
vn 0.992188 -0.016374 0.123674
vn 0.879433 0.147670 0.452538
vn 0.992188 -0.016374 0.123674
vn 0.672913 0.716652 -0.183298
vn 0.571187 -0.814644 -0.100505
vn -0.343821 -0.936377 0.070598
vn -0.744375 -0.609368 -0.273087
vn 0.170016 -0.923644 -0.343478
vn -0.901143 -0.084222 -0.425263
vn -0.901143 -0.084222 -0.425263
vn -0.815949 -0.038202 -0.576861
vn -0.815949 -0.038202 -0.576861
vn -0.800543 -0.599041 -0.016740
vn -0.744375 -0.609368 -0.273087
vn -0.096764 -0.463274 0.880916
vn 0.106165 0.026088 0.994006
vn -0.616295 0.125881 0.777390
vn -0.300890 0.902422 0.308383
vn 0.030609 -0.336854 0.941059
vn 0.654354 -0.142777 0.742587
vn 0.619995 0.230034 0.750127
vn 0.030609 -0.336854 0.941059
vn 0.106165 0.026088 0.994006
vn 0.619995 0.230034 0.750127
vn 0.444986 0.656645 0.608937
vn -0.168723 -0.652997 0.738328
vn 0.373941 -0.679962 0.630730
vn 0.030609 -0.336854 0.941059
vn 0.373941 -0.679962 0.630730
vn -0.096764 -0.463274 0.880916
vn -0.514556 -0.538677 0.667127
vn -0.168723 -0.652997 0.738328
vn -0.698354 -0.669578 0.252916
vn -0.514556 -0.538677 0.667127
vn -0.539515 -0.779692 0.317811
vn -0.168723 -0.652997 0.738328
vn -0.539515 -0.779692 0.317811
vn -0.161436 -0.909313 0.383521
vn -0.096764 -0.463274 0.880916
vn -0.616295 0.125881 0.777390
vn -0.681950 0.681900 0.264494
vn -0.514556 -0.538677 0.667127
vn -0.872337 0.217643 0.437789
vt 0.600000 1.000000
vt 0.500000 0.823800
vt 0.700000 0.823800
vt 0.500000 0.647600
vt 0.600000 0.676200
vt 0.700000 0.647600
vt 0.800000 1.000000
vt 0.900000 0.823800
vt 0.800000 0.676200
vt 0.900000 0.647600
vt 0.000000 1.000000
vt -0.100000 0.823800
vt 0.100000 0.823800
vt -0.100000 0.647600
vt 0.000000 0.676200
vt 0.100000 0.647600
vt 0.200000 1.000000
vt 0.300000 0.823800
vt 0.200000 0.676200
vt 0.300000 0.647600
vt 0.400000 1.000000
vt 0.400000 0.676200
vt 0.450000 0.500000
vt 0.550000 0.500000
vt 0.400000 0.352400
vt 0.500000 0.323800
vt 0.600000 0.352400
vt 0.650000 0.500000
vt 0.750000 0.500000
vt 0.700000 0.323800
vt 0.800000 0.352400
vt 0.850000 0.500000
vt 0.950000 0.500000
vt 0.900000 0.323800
vt -0.050000 0.500000
vt -0.100000 0.323800
vt 0.000000 0.352400
vt 0.050000 0.500000
vt 0.150000 0.500000
vt 0.100000 0.323800
vt 0.200000 0.352400
vt 0.250000 0.500000
vt 0.350000 0.500000
vt 0.300000 0.323800
vt 0.700000 0.000000
vt 0.800000 0.176200
vt 0.600000 0.176200
vt -0.100000 0.000000
vt 0.000000 0.176200
vt -0.200000 0.176200
vt 0.100000 0.000000
vt 0.200000 0.176200
vt 0.300000 0.000000
vt 0.400000 0.176200
vt 0.500000 0.000000
f 33/1/1 34/2/2 35/3/3
f 34/2/2 36/4/4 37/5/5
f 34/2/2 37/5/5 35/3/3
f 35/3/6 37/5/7 38/6/8
f 33/7/1 35/3/6 39/8/9
f 35/3/10 38/6/8 40/9/11
f 35/3/12 40/9/11 39/8/9
f 39/8/9 40/9/11 41/10/13
f 33/11/14 39/12/15 42/13/16
f 39/12/15 41/14/13 43/15/17
f 39/12/18 43/15/17 42/13/16
f 42/13/19 43/15/20 44/16/21
f 33/17/14 42/13/22 45/18/23
f 42/13/24 44/16/21 46/19/25
f 42/13/22 46/19/25 45/18/23
f 45/18/23 46/19/25 47/20/26
f 33/21/27 45/18/28 34/2/2
f 45/18/29 47/20/26 48/22/30
f 45/18/23 48/22/30 34/2/31
f 34/2/32 48/22/30 36/4/4
f 36/4/4 49/23/33 50/24/34
f 49/23/33 51/25/35 52/26/36
f 49/23/37 52/26/36 50/24/34
f 50/24/38 52/26/36 53/27/39
f 38/6/8 54/28/40 55/29/41
f 54/28/40 53/27/39 56/30/42
f 54/28/40 56/30/42 55/29/41
f 55/29/43 56/30/42 57/31/44
f 41/10/13 58/32/45 59/33/46
f 58/32/45 57/31/44 60/34/47
f 58/32/45 60/34/47 59/33/46
f 59/35/46 60/36/47 61/37/48
f 44/16/21 62/38/49 63/39/50
f 62/38/49 61/37/48 64/40/51
f 62/38/49 64/40/51 63/39/50
f 63/39/50 64/40/52 65/41/53
f 47/20/26 66/42/54 67/43/55
f 66/42/54 65/41/53 68/44/56
f 66/42/54 68/44/56 67/43/55
f 67/43/57 68/44/56 51/25/35
f 53/27/39 54/28/58 50/24/59
f 54/28/60 38/6/61 37/5/5
f 54/28/60 37/5/5 50/24/59
f 50/24/59 37/5/62 36/4/4
f 57/31/44 58/32/45 55/29/63
f 58/32/64 41/10/13 40/9/11
f 58/32/65 40/9/11 55/29/43
f 55/29/66 40/9/67 38/6/68
f 61/37/48 62/38/69 59/35/46
f 62/38/70 44/16/71 43/15/17
f 62/38/72 43/15/17 59/35/46
f 59/35/46 43/15/17 41/14/73
f 65/41/74 66/42/75 63/39/76
f 66/42/54 47/20/77 46/19/25
f 66/42/78 46/19/25 63/39/76
f 63/39/79 46/19/80 44/16/71
f 51/25/81 49/23/82 67/43/83
f 49/23/82 36/4/84 48/22/30
f 49/23/85 48/22/30 67/43/86
f 67/43/86 48/22/87 47/20/26
f 69/45/88 70/46/89 71/47/90
f 70/46/89 57/31/44 56/30/42
f 70/46/91 56/30/92 71/47/90
f 71/47/93 56/30/94 53/27/95
f 69/48/88 72/49/96 70/50/97
f 72/49/96 61/37/48 60/36/47
f 72/49/96 60/36/47 70/50/97
f 70/46/98 60/34/47 57/31/44
f 69/51/88 73/52/99 72/49/100
f 73/52/99 65/41/101 64/40/51
f 73/52/99 64/40/52 72/49/96
f 72/49/102 64/40/103 61/37/48
f 69/53/104 74/54/105 73/52/106
f 74/54/105 51/25/35 68/44/56
f 74/54/105 68/44/56 73/52/99
f 73/52/107 68/44/108 65/41/109
f 69/55/104 71/47/93 74/54/105
f 71/47/90 53/27/95 52/26/110
f 71/47/90 52/26/36 74/54/105
f 74/54/111 52/26/110 51/25/112
f 75/1/113 76/2/114 77/3/115
f 76/2/114 78/4/116 79/5/117
f 76/2/118 79/5/117 77/3/115
f 77/3/119 79/5/120 80/6/121
f 75/7/113 77/3/119 81/8/122
f 77/3/123 80/6/121 82/9/124
f 77/3/119 82/9/124 81/8/122
f 81/8/122 82/9/124 83/10/125
f 75/11/113 81/12/122 84/13/126
f 81/12/122 83/14/125 85/15/127
f 81/12/122 85/15/127 84/13/126
f 84/13/126 85/15/127 86/16/128
f 75/17/113 84/13/126 87/18/129
f 84/13/126 86/16/128 88/19/130
f 84/13/131 88/19/130 87/18/129
f 87/18/129 88/19/130 89/20/132
f 75/21/133 87/18/129 76/2/134
f 87/18/129 89/20/132 90/22/135
f 87/18/136 90/22/135 76/2/134
f 76/2/137 90/22/135 78/4/116
f 78/4/116 91/23/138 92/24/139
f 91/23/138 93/25/140 94/26/141
f 91/23/142 94/26/141 92/24/139
f 92/24/139 94/26/141 95/27/143
f 80/6/144 96/28/145 97/29/146
f 96/28/145 95/27/143 98/30/147
f 96/28/145 98/30/147 97/29/146
f 97/29/148 98/30/147 99/31/149
f 83/10/150 100/32/151 101/33/152
f 100/32/151 99/31/149 102/34/153
f 100/32/151 102/34/153 101/33/152
f 101/35/152 102/36/153 103/37/154
f 86/16/128 104/38/155 105/39/156
f 104/38/155 103/37/154 106/40/157
f 104/38/155 106/40/157 105/39/156
f 105/39/156 106/40/158 107/41/159
f 89/20/160 108/42/161 109/43/162
f 108/42/161 107/41/159 110/44/163
f 108/42/164 110/44/163 109/43/162
f 109/43/165 110/44/163 93/25/140
f 95/27/166 96/28/145 92/24/139
f 96/28/145 80/6/121 79/5/167
f 96/28/145 79/5/120 92/24/139
f 92/24/168 79/5/117 78/4/169
f 99/31/170 100/32/151 97/29/148
f 100/32/151 83/10/125 82/9/171
f 100/32/151 82/9/171 97/29/172
f 97/29/173 82/9/124 80/6/174
f 103/37/154 104/38/175 101/35/152
f 104/38/175 86/16/176 85/15/177
f 104/38/178 85/15/179 101/35/180
f 101/35/180 85/15/181 83/14/182
f 107/41/159 108/42/164 105/39/183
f 108/42/184 89/20/185 88/19/130
f 108/42/184 88/19/130 105/39/156
f 105/39/183 88/19/186 86/16/176
f 93/25/140 91/23/187 109/43/162
f 91/23/188 78/4/116 90/22/189
f 91/23/188 90/22/190 109/43/191
f 109/43/165 90/22/135 89/20/192
f 111/45/193 112/46/194 113/47/195
f 112/46/194 99/31/170 98/30/196
f 112/46/194 98/30/196 113/47/195
f 113/47/195 98/30/147 95/27/143
f 111/48/193 114/49/197 112/50/194
f 114/49/197 103/37/198 102/36/199
f 114/49/200 102/36/153 112/50/201
f 112/46/201 102/34/202 99/31/203
f 111/51/193 115/52/204 114/49/200
f 115/52/204 107/41/159 106/40/158
f 115/52/204 106/40/205 114/49/200
f 114/49/206 106/40/207 103/37/198
f 111/53/208 116/54/209 115/52/210
f 116/54/209 93/25/211 110/44/163
f 116/54/212 110/44/213 115/52/214
f 115/52/210 110/44/215 107/41/216
f 111/55/217 113/47/195 116/54/212
f 113/47/218 95/27/219 94/26/141
f 113/47/195 94/26/141 116/54/209
f 116/54/220 94/26/221 93/25/140

#
# Mesh_Trunk_1
#
usemtl Mesh_Trunk_1

v -1.140213 -0.745900 1.351240
v 1.579387 -0.750600 1.331240
v 1.194686 2.984700 1.038440
v -0.759913 2.181800 1.030240
v 1.599487 -0.842600 -1.779160
v 1.209486 2.927600 -1.269560
v -1.120213 -0.837900 -1.759160
v -0.745013 2.124700 -1.277760
v 0.096787 7.047900 1.437640
v -1.734213 7.047900 1.437640
v 0.096787 7.047900 -0.393360
v -1.734213 7.047900 -0.393360
v -1.267113 12.712300 1.558340
v -2.561614 12.712300 1.558340
v -1.267113 12.712300 0.263840
v -2.561614 12.712300 0.263840
v -1.984313 14.125800 1.452940
v -0.900612 14.125800 1.452940
v 3.023687 23.942301 0.782040
v 2.313687 23.942301 0.782040
v -0.900612 14.125800 0.369240
v 3.023687 23.942301 0.072040
v -1.984313 14.125800 0.369240
v 2.313687 23.942301 0.072040
v -7.787210 19.236601 0.242740
v -7.787210 19.236601 0.611440
v -8.442709 18.850100 0.190140
v -8.442709 18.850100 0.663940
v -10.917313 22.958099 0.402140
v -10.917313 22.958099 0.451940
v -11.186514 22.799400 0.430440
v -11.186514 22.799400 0.423740
v -9.989613 29.906799 -2.352660
v -13.121815 28.010000 -3.022160
v -9.747211 28.364300 1.069140
v -14.937214 26.297100 0.221840
v -15.774717 29.579599 2.608540
v -13.245117 27.315800 4.808439
v -7.207409 29.813601 -0.952160
v -9.475910 27.466801 4.015140
v -6.894810 27.880199 3.195140
v -6.440510 27.692101 -4.218760
v -3.880013 25.680300 1.410340
v -5.645208 25.833599 -2.952060
v -10.606812 29.147800 -5.895761
v -9.331913 25.275499 -5.885160
v -13.019917 25.179399 -5.660961
v -13.604614 26.425100 -2.739360
v -16.945318 23.559000 -1.680160
v -16.292021 24.574200 2.066540
v -13.999212 20.888100 -1.336860
v -16.391417 20.602200 3.492740
v -14.534315 23.549601 4.611740
v -13.548714 22.964300 6.212639
v -10.186211 25.346300 6.980639
v -13.201015 22.105600 7.994539
v -10.104210 21.935499 7.200239
v -6.413307 25.738600 5.872639
v -4.473511 24.919300 1.297140
v -6.195810 21.854300 4.799439
v -5.058613 19.215000 1.984640
v -4.997811 21.637400 -1.592160
v -5.339911 22.412800 -3.559161
v -4.586514 19.541401 -0.890060
v -7.571810 20.066099 -3.264760
v -9.369511 21.482800 -4.793860
v -12.745014 24.380699 -5.013061
v -11.942114 20.563801 -2.099060
v -9.679111 18.423401 2.353040
v -10.003910 18.211500 6.021939
v -13.117916 19.648701 4.612040
v -7.146210 19.991600 1.798740
v -8.503408 19.025600 -0.847360
v -12.572216 18.410101 1.003640
v 3.743387 24.119801 -6.179461
v -0.134114 23.337999 -5.221061
v 4.120387 26.512899 -2.856460
v -1.994112 25.998100 -2.140360
v -1.692414 30.084499 -4.073961
v 0.729587 30.393000 -0.386360
v 6.859487 24.689899 -4.925261
v 4.619586 28.771099 -0.391360
v 7.320187 27.553900 -0.834960
v 6.644886 20.369699 -4.566661
v 9.674788 24.022301 0.727840
v 7.202987 20.438601 -2.019760
v 2.372987 20.564699 -7.457659
v 2.741187 18.331200 -3.617960
v -1.134314 19.424299 -3.957761
v -1.000113 22.939199 -3.650061
v -5.083609 23.355499 -0.883660
v -3.580313 27.220301 0.268140
v -2.602513 21.610100 2.253440
v -4.473610 26.615801 4.755839
v -1.607314 28.663601 2.859640
v -0.477812 29.631001 4.416240
v 3.779287 30.688200 3.088640
v -0.062113 30.793800 6.231939
v 3.038487 29.181101 6.428139
v 7.686986 28.889000 2.688240
v 8.840986 23.687700 1.294640
v 6.776687 25.896200 5.800039
v 6.888887 21.650801 6.943639
v 7.029987 19.472200 2.754840
v 6.571487 18.092400 0.919140
v 7.039387 18.988701 5.165139
v 3.672787 17.767300 2.952240
v 1.908186 17.485001 0.530640
v -0.949513 19.568199 -2.817560
v -0.631213 20.213200 2.456740
v 1.877286 22.769501 7.196539
v 2.029287 26.198601 9.315240
v -1.098914 26.370501 6.741940
v 4.857987 22.387699 5.801539
v 2.789887 19.760500 5.088739
v -1.374913 22.222601 6.053539
vn -0.705372 0.153853 0.691939
vn 0.694111 0.137387 0.706636
vn 0.695323 0.130645 0.706723
vn -0.704804 -0.022762 0.709037
vn 0.689513 0.176821 -0.702357
vn 0.672626 0.245347 -0.698125
vn -0.701451 0.187891 -0.687506
vn -0.713598 0.090830 -0.694642
vn -0.704804 -0.022762 0.709037
vn 0.692909 0.137378 0.707816
vn -0.690825 -0.158624 0.705407
vn 0.695323 0.130645 0.706723
vn 0.666012 0.277796 -0.692284
vn -0.713598 0.090830 -0.694642
vn -0.712328 -0.015295 -0.701680
vn -0.713598 0.090830 -0.694642
vn -0.704804 -0.022762 0.709037
vn 0.696774 0.012987 0.717173
vn -0.495941 -0.189873 0.847343
vn -0.690826 -0.158624 0.705407
vn 0.696646 0.062016 -0.714729
vn -0.476223 -0.173434 -0.862051
vn -0.088511 0.424482 0.901100
vn 0.678785 -0.171668 0.713989
vn 0.665056 -0.217030 0.714562
vn -0.639062 0.327371 0.696008
vn 0.673985 -0.205439 -0.709605
vn 0.652928 -0.282297 -0.702846
vn -0.059761 0.382318 -0.922096
vn -0.651709 0.263811 -0.711112
vn 0.696774 0.012987 0.717173
vn 0.696774 0.012987 0.717173
vn 0.696646 0.062016 -0.714729
vn 0.696646 0.062016 -0.714729
vn 0.517959 0.519170 -0.679839
vn 0.486842 0.545387 0.682303
vn -0.059761 0.382318 -0.922096
vn -0.534644 -0.418004 -0.734458
vn -0.476223 -0.173434 -0.862051
vn -0.566215 -0.389580 0.726380
vn -0.088511 0.424482 0.901100
vn 0.542774 0.494687 0.678734
vn 0.542774 0.494687 -0.678735
vn -0.580063 -0.358511 -0.731435
vn -0.566215 -0.389580 0.726380
vn -0.580063 -0.358511 0.731435
vt 0.000000 0.000000
vt 1.000000 0.000000
vt 1.000000 1.000000
vt 0.000000 1.000000
f 117/56/222 118/57/223 119/58/224 120/59/225
f 118/56/223 121/57/226 122/58/227 119/59/224
f 121/56/226 123/57/228 124/58/229 122/59/227
f 123/56/228 117/57/222 120/58/225 124/59/229
f 120/59/230 119/58/224 125/57/231 126/56/232
f 119/59/233 122/58/227 127/58/234 125/57/231
f 122/59/227 124/58/235 128/59/236 127/58/234
f 124/59/237 120/58/238 126/56/232 128/59/236
f 125/57/231 129/57/239 130/56/240 126/56/241
f 127/58/234 131/58/242 129/57/239 125/57/231
f 127/58/234 128/59/236 132/59/243 131/58/242
f 126/56/232 130/56/240 132/59/243 128/59/236
f 133/56/244 134/57/245 135/57/246 136/56/247
f 134/57/245 137/58/248 138/58/249 135/57/246
f 137/58/248 139/59/250 140/59/251 138/58/249
f 139/59/250 133/56/244 136/56/247 140/59/251
f 129/57/252 134/57/245 133/56/244 130/56/240
f 137/58/248 134/57/245 129/57/253 131/58/254
f 139/59/250 137/58/248 131/58/255 132/59/243
f 133/56/244 139/59/250 141/59/256 142/56/257
f 139/59/258 132/59/243 143/59/259 141/59/256
f 132/59/260 130/56/240 144/56/261 143/59/259
f 130/56/240 133/56/262 142/56/257 144/56/261
f 145/56/263 142/56/257 141/59/256 146/59/264
f 141/59/256 143/59/259 147/59/265 146/59/264
f 147/59/265 143/59/259 144/56/266 148/56/267
f 144/56/261 142/56/257 145/56/263 148/56/267
