#model taken from http://www.proarch3d.com/low-poly-clouds-3d-model/
#
#

mtllib cloud1.mtl


#
# GeoSphere026 Mesh
#
g GeoSphere026 Mesh


#
# GeoSphere026 Mesh_wire_087225143
#
usemtl GeoSphere026 Mesh_wire_087225143

v 4.188690 63.280502 -15.009995
v -6.381622 50.911194 10.445602
v 23.023376 50.911194 -0.723801
v 7.178986 21.049103 26.786011
v 28.170380 21.049103 11.686508
v 35.113586 21.049103 -19.051498
v 14.759094 50.911194 -40.465591
v 23.941498 21.049103 -47.421997
v 1.198395 21.049103 -56.806000
v -14.645905 50.911194 -29.296097
v -19.792908 21.049103 -41.706497
v -26.736206 21.049103 -10.968491
v -15.563995 21.049103 17.402008
v 4.188690 -21.182404 -15.009995
v 20.649078 -8.813110 -33.908691
v 18.171875 -8.813110 7.236801
v -9.794525 -8.813110 -37.256790
v -12.271698 -8.813110 3.888809
vn 0.123443 0.856622 0.500959
vn 0.311661 0.616257 0.723253
vn 0.217327 0.418494 0.881834
vn 0.838679 0.389086 0.381090
vn 0.396413 0.909801 -0.122957
vn 0.598307 0.700433 -0.389130
vn 0.815975 0.519779 -0.253012
vn 0.186010 0.336762 -0.923034
vn -0.123443 0.856622 -0.500959
vn -0.311661 0.616257 -0.723253
vn -0.217327 0.418494 -0.881834
vn -0.838679 0.389086 -0.381090
vn -0.396413 0.909801 0.122957
vn -0.598307 0.700433 0.389130
vn -0.815975 0.519779 0.253012
vn -0.186010 0.336762 0.923034
vn 0.415857 -0.906763 0.069601
vn 0.661130 -0.687504 0.300409
vn 0.846888 -0.512558 0.141648
vn 0.373620 -0.329594 0.867050
vn 0.014125 -0.859164 -0.511505
vn 0.154112 -0.625532 -0.764826
vn 0.024924 -0.422423 -0.906056
vn 0.767898 -0.401044 -0.499496
vn -0.415857 -0.906763 -0.069601
vn -0.661130 -0.687504 -0.300409
vn -0.846888 -0.512558 -0.141648
vn -0.373620 -0.329594 -0.867050
vn -0.014125 -0.859164 0.511505
vn -0.154112 -0.625532 0.764826
vn -0.024924 -0.422423 0.906056
vn -0.767898 -0.401044 0.499496
vt 0.625000 1.000000
vt 0.500000 0.750000
vt 0.750000 0.750000
vt 0.500000 0.500000
vt 0.625000 0.500000
vt 0.750000 0.500000
vt 0.875000 1.000000
vt 1.000000 0.750000
vt 0.875000 0.500000
vt 1.000000 0.500000
vt 0.125000 1.000000
vt 0.000000 0.750000
vt 0.250000 0.750000
vt 0.000000 0.500000
vt 0.125000 0.500000
vt 0.250000 0.500000
vt 0.375000 1.000000
vt 0.375000 0.500000
vt 0.625000 0.000000
vt 0.750000 0.250000
vt 0.500000 0.250000
vt 0.875000 0.000000
vt 1.000000 0.250000
vt 0.125000 0.000000
vt 0.250000 0.250000
vt 0.000000 0.250000
vt 0.375000 0.000000
f 1/1/1 2/2/1 3/3/1
f 2/2/2 4/4/2 5/5/2
f 2/2/3 5/5/3 3/3/3
f 3/3/4 5/5/4 6/6/4
f 1/7/5 3/3/5 7/8/5
f 3/3/6 6/6/6 8/9/6
f 3/3/7 8/9/7 7/8/7
f 7/8/8 8/9/8 9/10/8
f 1/11/9 7/12/9 10/13/9
f 7/12/10 9/14/10 11/15/10
f 7/12/11 11/15/11 10/13/11
f 10/13/12 11/15/12 12/16/12
f 1/17/13 10/13/13 2/2/13
f 10/13/14 12/16/14 13/18/14
f 10/13/15 13/18/15 2/2/15
f 2/2/16 13/18/16 4/4/16
f 14/19/17 15/20/17 16/21/17
f 15/20/18 6/6/18 5/5/18
f 15/20/19 5/5/19 16/21/19
f 16/21/20 5/5/20 4/4/20
f 14/22/21 17/23/21 15/20/21
f 17/23/22 9/10/22 8/9/22
f 17/23/23 8/9/23 15/20/23
f 15/20/24 8/9/24 6/6/24
f 14/24/25 18/25/25 17/26/25
f 18/25/26 12/16/26 11/15/26
f 18/25/27 11/15/27 17/26/27
f 17/26/28 11/15/28 9/14/28
f 14/27/29 16/21/29 18/25/29
f 16/21/30 4/4/30 13/18/30
f 16/21/31 13/18/31 18/25/31
f 18/25/32 13/18/32 12/16/32


#
# GeoSphere027 Mesh
#
g GeoSphere027 Mesh


#
# GeoSphere027 Mesh_wire_087225143
#
usemtl GeoSphere027 Mesh_wire_087225143

v 5.422302 -1.744797 5.701508
v 0.516602 -5.531403 14.442703
v 14.163483 -5.531403 10.607208
v 6.810089 -14.673309 20.053802
v 16.552185 -14.673309 14.868805
v 19.774597 -14.673309 4.313705
v 10.328003 -5.531403 -3.039688
v 14.589600 -14.673309 -5.428391
v 4.034485 -14.673309 -8.650787
v -3.318817 -5.531403 0.795807
v -5.707611 -14.673309 -3.465790
v -8.930023 -14.673309 7.089310
v -3.744995 -14.673309 16.831406
v 5.422302 -27.601807 5.701508
v 13.061584 -23.815102 -0.788101
v 11.911896 -23.815102 13.340805
v -1.067322 -23.815102 -1.937790
v -2.217010 -23.815102 12.191101
vn 0.127504 0.882029 0.453615
vn 0.355294 0.654288 0.667588
vn 0.240100 0.461001 0.854301
vn 0.892267 0.360087 0.272390
vn 0.453615 0.882029 -0.127504
vn 0.667588 0.654288 -0.355294
vn 0.854301 0.461001 -0.240100
vn 0.272390 0.360087 -0.892267
vn -0.127504 0.882029 -0.453615
vn -0.355294 0.654288 -0.667588
vn -0.240100 0.461001 -0.854301
vn -0.892267 0.360087 -0.272390
vn -0.453615 0.882029 0.127504
vn -0.667588 0.654288 0.355294
vn -0.854301 0.461001 0.240100
vn -0.272390 0.360087 0.892267
vn 0.469700 -0.881999 0.038200
vn 0.723291 -0.654292 0.220797
vn 0.884480 -0.460990 0.071998
vn 0.438315 -0.360112 0.823528
vn 0.038200 -0.881999 -0.469700
vn 0.220797 -0.654292 -0.723291
vn 0.071998 -0.460990 -0.884480
vn 0.823528 -0.360112 -0.438315
vn -0.469700 -0.881999 -0.038200
vn -0.723291 -0.654292 -0.220797
vn -0.884480 -0.460990 -0.071998
vn -0.438315 -0.360112 -0.823528
vn -0.038200 -0.881999 0.469700
vn -0.220797 -0.654292 0.723291
vn -0.071998 -0.460990 0.884480
vn -0.823528 -0.360112 0.438315
vt 0.625000 1.000000
vt 0.500000 0.750000
vt 0.750000 0.750000
vt 0.500000 0.500000
vt 0.625000 0.500000
vt 0.750000 0.500000
vt 0.875000 1.000000
vt 1.000000 0.750000
vt 0.875000 0.500000
vt 1.000000 0.500000
vt 0.125000 1.000000
vt 0.000000 0.750000
vt 0.250000 0.750000
vt 0.000000 0.500000
vt 0.125000 0.500000
vt 0.250000 0.500000
vt 0.375000 1.000000
vt 0.375000 0.500000
vt 0.625000 0.000000
vt 0.750000 0.250000
vt 0.500000 0.250000
vt 0.875000 0.000000
vt 1.000000 0.250000
vt 0.125000 0.000000
vt 0.250000 0.250000
vt 0.000000 0.250000
vt 0.375000 0.000000
f 19/28/33 20/29/33 21/30/33
f 20/29/34 22/31/34 23/32/34
f 20/29/35 23/32/35 21/30/35
f 21/30/36 23/32/36 24/33/36
f 19/34/37 21/30/37 25/35/37
f 21/30/38 24/33/38 26/36/38
f 21/30/39 26/36/39 25/35/39
f 25/35/40 26/36/40 27/37/40
f 19/38/41 25/39/41 28/40/41
f 25/39/42 27/41/42 29/42/42
f 25/39/43 29/42/43 28/40/43
f 28/40/44 29/42/44 30/43/44
f 19/44/45 28/40/45 20/29/45
f 28/40/46 30/43/46 31/45/46
f 28/40/47 31/45/47 20/29/47
f 20/29/48 31/45/48 22/31/48
f 32/46/49 33/47/49 34/48/49
f 33/47/50 24/33/50 23/32/50
f 33/47/51 23/32/51 34/48/51
f 34/48/52 23/32/52 22/31/52
f 32/49/53 35/50/53 33/47/53
f 35/50/54 27/37/54 26/36/54
f 35/50/55 26/36/55 33/47/55
f 33/47/56 26/36/56 24/33/56
f 32/51/57 36/52/57 35/53/57
f 36/52/58 30/43/58 29/42/58
f 36/52/59 29/42/59 35/53/59
f 35/53/60 29/42/60 27/41/60
f 32/54/61 34/48/61 36/52/61
f 34/48/62 22/31/62 31/45/62
f 34/48/63 31/45/63 36/52/63
f 36/52/64 31/45/64 30/43/64


#
# GeoSphere028 Mesh
#
g GeoSphere028 Mesh


#
# GeoSphere028 Mesh_wire_087225143
#
usemtl GeoSphere028 Mesh_wire_087225143

v -18.717316 30.971497 6.556000
v -26.233398 23.503189 24.651611
v -5.324799 23.503189 16.711609
v -16.591003 5.472900 36.267517
v -1.664917 5.472900 25.533691
v 3.272186 5.472900 3.682999
v -11.201202 23.503189 -11.539597
v -4.671906 5.472900 -16.484695
v -20.843597 5.472900 -23.155487
v -32.109909 23.503189 -3.599594
v -35.769714 5.472900 -12.421692
v -40.706818 5.472900 9.428909
v -32.762711 5.472900 29.596619
v -18.717316 -20.025703 6.556000
v -7.013000 -12.557297 -6.878494
v -8.774414 -12.557297 22.370514
v -28.660217 -12.557297 -9.258499
v -30.421707 -12.557297 19.990509
vn 0.123443 0.856622 0.500959
vn 0.311682 0.616300 0.723208
vn 0.217344 0.418528 0.881814
vn 0.838711 0.389050 0.381056
vn 0.396413 0.909801 -0.122957
vn 0.598376 0.700388 -0.389105
vn 0.816012 0.519731 -0.252989
vn 0.186116 0.336786 -0.923004
vn -0.123443 0.856622 -0.500959
vn -0.311682 0.616300 -0.723208
vn -0.217344 0.418528 -0.881814
vn -0.838711 0.389050 -0.381056
vn -0.396413 0.909801 0.122957
vn -0.598376 0.700388 0.389105
vn -0.816012 0.519731 0.252989
vn -0.186116 0.336786 0.923004
vn 0.415945 -0.906731 0.069495
vn 0.661189 -0.687456 0.300388
vn 0.846951 -0.512462 0.141622
vn 0.373728 -0.329609 0.866998
vn 0.014125 -0.859207 -0.511433
vn 0.154206 -0.625523 -0.764815
vn 0.025018 -0.422457 -0.906038
vn 0.767989 -0.400976 -0.499410
vn -0.415945 -0.906731 -0.069495
vn -0.661189 -0.687456 -0.300388
vn -0.846951 -0.512462 -0.141622
vn -0.373728 -0.329609 -0.866998
vn -0.014125 -0.859207 0.511433
vn -0.154206 -0.625523 0.764815
vn -0.025018 -0.422457 0.906038
vn -0.767989 -0.400976 0.499410
vt 0.625000 1.000000
vt 0.500000 0.750000
vt 0.750000 0.750000
vt 0.500000 0.500000
vt 0.625000 0.500000
vt 0.750000 0.500000
vt 0.875000 1.000000
vt 1.000000 0.750000
vt 0.875000 0.500000
vt 1.000000 0.500000
vt 0.125000 1.000000
vt 0.000000 0.750000
vt 0.250000 0.750000
vt 0.000000 0.500000
vt 0.125000 0.500000
vt 0.250000 0.500000
vt 0.375000 1.000000
vt 0.375000 0.500000
vt 0.625000 0.000000
vt 0.750000 0.250000
vt 0.500000 0.250000
vt 0.875000 0.000000
vt 1.000000 0.250000
vt 0.125000 0.000000
vt 0.250000 0.250000
vt 0.000000 0.250000
vt 0.375000 0.000000
f 37/55/65 38/56/65 39/57/65
f 38/56/66 40/58/66 41/59/66
f 38/56/67 41/59/67 39/57/67
f 39/57/68 41/59/68 42/60/68
f 37/61/69 39/57/69 43/62/69
f 39/57/70 42/60/70 44/63/70
f 39/57/71 44/63/71 43/62/71
f 43/62/72 44/63/72 45/64/72
f 37/65/73 43/66/73 46/67/73
f 43/66/74 45/68/74 47/69/74
f 43/66/75 47/69/75 46/67/75
f 46/67/76 47/69/76 48/70/76
f 37/71/77 46/67/77 38/56/77
f 46/67/78 48/70/78 49/72/78
f 46/67/79 49/72/79 38/56/79
f 38/56/80 49/72/80 40/58/80
f 50/73/81 51/74/81 52/75/81
f 51/74/82 42/60/82 41/59/82
f 51/74/83 41/59/83 52/75/83
f 52/75/84 41/59/84 40/58/84
f 50/76/85 53/77/85 51/74/85
f 53/77/86 45/64/86 44/63/86
f 53/77/87 44/63/87 51/74/87
f 51/74/88 44/63/88 42/60/88
f 50/78/89 54/79/89 53/80/89
f 54/79/90 48/70/90 47/69/90
f 54/79/91 47/69/91 53/80/91
f 53/80/92 47/69/92 45/68/92
f 50/81/93 52/75/93 54/79/93
f 52/75/94 40/58/94 49/72/94
f 52/75/95 49/72/95 54/79/95
f 54/79/96 49/72/96 48/70/96


#
# GeoSphere029 Mesh
#
g GeoSphere029 Mesh


#
# GeoSphere029 Mesh_wire_087225143
#
usemtl GeoSphere029 Mesh_wire_087225143

v -37.957016 27.288193 -10.873596
v -20.818207 18.552002 1.228500
v -25.854797 18.552002 -28.012390
v -13.987396 -2.539307 6.051910
v -9.039795 -2.539307 -15.854492
v -21.031403 -2.539307 -34.843201
v -55.095810 18.552002 -22.975800
v -42.937912 -2.539307 -39.790894
v -61.926605 -2.539307 -27.799194
v -50.059113 18.552002 6.265106
v -66.874207 -2.539307 -5.892792
v -54.882614 -2.539307 13.096008
v -32.976105 -2.539307 18.043610
v -37.957016 -32.366806 -10.873596
v -25.854797 -23.630501 -28.012390
v -20.818207 -23.630501 1.228500
v -55.095810 -23.630501 -22.975800
v -50.059113 -23.630501 6.265106
vn 0.601226 0.792334 -0.103604
vn 0.939270 0.269792 0.212093
vn 0.872167 0.465582 -0.150194
vn 0.814153 0.269784 -0.514170
vn -0.103604 0.792334 -0.601226
vn 0.212093 0.269792 -0.939270
vn -0.150194 0.465582 -0.872167
vn -0.514170 0.269784 -0.814153
vn -0.601226 0.792334 0.103604
vn -0.939270 0.269792 -0.212093
vn -0.872167 0.465582 0.150194
vn -0.814153 0.269784 0.514170
vn 0.103604 0.792334 0.601226
vn -0.212093 0.269792 0.939270
vn 0.150194 0.465582 0.872167
vn 0.514170 0.269784 0.814153
vn 0.601226 -0.792334 -0.103604
vn 0.814153 -0.269784 -0.514170
vn 0.872167 -0.465582 -0.150194
vn 0.939270 -0.269792 0.212093
vn -0.103604 -0.792334 -0.601226
vn -0.514170 -0.269784 -0.814153
vn -0.150194 -0.465582 -0.872167
vn 0.212093 -0.269792 -0.939270
vn -0.601226 -0.792334 0.103604
vn -0.814153 -0.269784 0.514170
vn -0.872167 -0.465582 0.150194
vn -0.939270 -0.269792 -0.212093
vn 0.103604 -0.792334 0.601226
vn 0.514170 -0.269784 0.814153
vn 0.150194 -0.465582 0.872167
vn -0.212093 -0.269792 0.939270
vt 0.625000 1.000000
vt 0.500000 0.750000
vt 0.750000 0.750000
vt 0.500000 0.500000
vt 0.625000 0.500000
vt 0.750000 0.500000
vt 0.875000 1.000000
vt 1.000000 0.750000
vt 0.875000 0.500000
vt 1.000000 0.500000
vt 0.125000 1.000000
vt 0.000000 0.750000
vt 0.250000 0.750000
vt 0.000000 0.500000
vt 0.125000 0.500000
vt 0.250000 0.500000
vt 0.375000 1.000000
vt 0.375000 0.500000
vt 0.625000 0.000000
vt 0.750000 0.250000
vt 0.500000 0.250000
vt 0.875000 0.000000
vt 1.000000 0.250000
vt 0.125000 0.000000
vt 0.250000 0.250000
vt 0.000000 0.250000
vt 0.375000 0.000000
f 55/82/97 56/83/97 57/84/97
f 56/83/98 58/85/98 59/86/98
f 56/83/99 59/86/99 57/84/99
f 57/84/100 59/86/100 60/87/100
f 55/88/101 57/84/101 61/89/101
f 57/84/102 60/87/102 62/90/102
f 57/84/103 62/90/103 61/89/103
f 61/89/104 62/90/104 63/91/104
f 55/92/105 61/93/105 64/94/105
f 61/93/106 63/95/106 65/96/106
f 61/93/107 65/96/107 64/94/107
f 64/94/108 65/96/108 66/97/108
f 55/98/109 64/94/109 56/83/109
f 64/94/110 66/97/110 67/99/110
f 64/94/111 67/99/111 56/83/111
f 56/83/112 67/99/112 58/85/112
f 68/100/113 69/101/113 70/102/113
f 69/101/114 60/87/114 59/86/114
f 69/101/115 59/86/115 70/102/115
f 70/102/116 59/86/116 58/85/116
f 68/103/117 71/104/117 69/101/117
f 71/104/118 63/91/118 62/90/118
f 71/104/119 62/90/119 69/101/119
f 69/101/120 62/90/120 60/87/120
f 68/105/121 72/106/121 71/107/121
f 72/106/122 66/97/122 65/96/122
f 72/106/123 65/96/123 71/107/123
f 71/107/124 65/96/124 63/95/124
f 68/108/125 70/102/125 72/106/125
f 70/102/126 58/85/126 67/99/126
f 70/102/127 67/99/127 72/106/127
f 72/106/128 67/99/128 66/97/128


#
# GeoSphere030 Mesh
#
g GeoSphere030 Mesh


#
# GeoSphere030 Mesh_wire_087225143
#
usemtl GeoSphere030 Mesh_wire_087225143

v -58.864304 -1.744797 15.435699
v -63.770004 -5.531403 24.176819
v -50.123108 -5.531403 20.341400
v -57.476517 -14.673309 29.787994
v -47.734406 -14.673309 24.602997
v -44.512009 -14.673309 14.047913
v -53.958603 -5.531403 6.694504
v -49.697006 -14.673309 4.305801
v -60.252106 -14.673309 1.083405
v -67.605408 -5.531403 10.529999
v -69.994217 -14.673309 6.268402
v -73.216507 -14.673309 16.823502
v -68.031509 -14.673309 26.565613
v -58.864304 -27.601807 15.435699
v -51.225006 -23.815102 8.946106
v -52.374710 -23.815102 23.075012
v -65.353912 -23.815102 7.796402
v -66.503616 -23.815102 21.925293
vn 0.127504 0.882029 0.453615
vn 0.355294 0.654288 0.667588
vn 0.240100 0.461001 0.854301
vn 0.892267 0.360087 0.272390
vn 0.453615 0.882029 -0.127504
vn 0.667588 0.654288 -0.355294
vn 0.854301 0.461001 -0.240100
vn 0.272390 0.360087 -0.892267
vn -0.127504 0.882029 -0.453615
vn -0.355294 0.654288 -0.667588
vn -0.240100 0.461001 -0.854301
vn -0.892267 0.360087 -0.272390
vn -0.453615 0.882029 0.127504
vn -0.667588 0.654288 0.355294
vn -0.854301 0.461001 0.240100
vn -0.272390 0.360087 0.892267
vn 0.469700 -0.881999 0.038200
vn 0.723291 -0.654292 0.220797
vn 0.884480 -0.460990 0.071998
vn 0.438315 -0.360112 0.823528
vn 0.038200 -0.881999 -0.469700
vn 0.220797 -0.654292 -0.723291
vn 0.071998 -0.460990 -0.884480
vn 0.823528 -0.360112 -0.438315
vn -0.469700 -0.881999 -0.038200
vn -0.723291 -0.654292 -0.220797
vn -0.884480 -0.460990 -0.071998
vn -0.438315 -0.360112 -0.823528
vn -0.038200 -0.881999 0.469700
vn -0.220797 -0.654292 0.723291
vn -0.071998 -0.460990 0.884480
vn -0.823528 -0.360112 0.438315
vt 0.625000 1.000000
vt 0.500000 0.750000
vt 0.750000 0.750000
vt 0.500000 0.500000
vt 0.625000 0.500000
vt 0.750000 0.500000
vt 0.875000 1.000000
vt 1.000000 0.750000
vt 0.875000 0.500000
vt 1.000000 0.500000
vt 0.125000 1.000000
vt 0.000000 0.750000
vt 0.250000 0.750000
vt 0.000000 0.500000
vt 0.125000 0.500000
vt 0.250000 0.500000
vt 0.375000 1.000000
vt 0.375000 0.500000
vt 0.625000 0.000000
vt 0.750000 0.250000
vt 0.500000 0.250000
vt 0.875000 0.000000
vt 1.000000 0.250000
vt 0.125000 0.000000
vt 0.250000 0.250000
vt 0.000000 0.250000
vt 0.375000 0.000000
f 73/109/129 74/110/129 75/111/129
f 74/110/130 76/112/130 77/113/130
f 74/110/131 77/113/131 75/111/131
f 75/111/132 77/113/132 78/114/132
f 73/115/133 75/111/133 79/116/133
f 75/111/134 78/114/134 80/117/134
f 75/111/135 80/117/135 79/116/135
f 79/116/136 80/117/136 81/118/136
f 73/119/137 79/120/137 82/121/137
f 79/120/138 81/122/138 83/123/138
f 79/120/139 83/123/139 82/121/139
f 82/121/140 83/123/140 84/124/140
f 73/125/141 82/121/141 74/110/141
f 82/121/142 84/124/142 85/126/142
f 82/121/143 85/126/143 74/110/143
f 74/110/144 85/126/144 76/112/144
f 86/127/145 87/128/145 88/129/145
f 87/128/146 78/114/146 77/113/146
f 87/128/147 77/113/147 88/129/147
f 88/129/148 77/113/148 76/112/148
f 86/130/149 89/131/149 87/128/149
f 89/131/150 81/118/150 80/117/150
f 89/131/151 80/117/151 87/128/151
f 87/128/152 80/117/152 78/114/152
f 86/132/153 90/133/153 89/134/153
f 90/133/154 84/124/154 83/123/154
f 90/133/155 83/123/155 89/134/155
f 89/134/156 83/123/156 81/122/156
f 86/135/157 88/129/157 90/133/157
f 88/129/158 76/112/158 85/126/158
f 88/129/159 85/126/159 90/133/159
f 90/133/160 85/126/160 84/124/160


#
# GeoSphere031 Mesh
#
g GeoSphere031 Mesh


#
# GeoSphere031 Mesh_wire_087225143
#
usemtl GeoSphere031 Mesh_wire_087225143

v 27.647400 -1.744797 5.701508
v 22.741699 -5.531403 14.442703
v 36.388489 -5.531403 10.607208
v 29.035187 -14.673309 20.053802
v 38.777283 -14.673309 14.868805
v 41.999603 -14.673309 4.313705
v 32.553101 -5.531403 -3.039688
v 36.814575 -14.673309 -5.428391
v 26.259583 -14.673309 -8.650787
v 18.906189 -5.531403 0.795807
v 16.517487 -14.673309 -3.465790
v 13.295105 -14.673309 7.089310
v 18.480103 -14.673309 16.831406
v 27.647400 -27.601807 5.701508
v 35.286682 -23.815102 -0.788101
v 34.136993 -23.815102 13.340805
v 21.157776 -23.815102 -1.937790
v 20.008087 -23.815102 12.191101
vn 0.127504 0.882029 0.453615
vn 0.355294 0.654288 0.667588
vn 0.240100 0.461001 0.854301
vn 0.892267 0.360087 0.272390
vn 0.453615 0.882029 -0.127504
vn 0.667588 0.654288 -0.355294
vn 0.854301 0.461001 -0.240100
vn 0.272390 0.360087 -0.892267
vn -0.127504 0.882029 -0.453615
vn -0.355294 0.654288 -0.667588
vn -0.240100 0.461001 -0.854301
vn -0.892267 0.360087 -0.272390
vn -0.453615 0.882029 0.127504
vn -0.667588 0.654288 0.355294
vn -0.854301 0.461001 0.240100
vn -0.272390 0.360087 0.892267
vn 0.469700 -0.881999 0.038200
vn 0.723291 -0.654292 0.220797
vn 0.884480 -0.460990 0.071998
vn 0.438315 -0.360112 0.823528
vn 0.038200 -0.881999 -0.469700
vn 0.220797 -0.654292 -0.723291
vn 0.071998 -0.460990 -0.884480
vn 0.823528 -0.360112 -0.438315
vn -0.469700 -0.881999 -0.038200
vn -0.723291 -0.654292 -0.220797
vn -0.884480 -0.460990 -0.071998
vn -0.438315 -0.360112 -0.823528
vn -0.038200 -0.881999 0.469700
vn -0.220797 -0.654292 0.723291
vn -0.071998 -0.460990 0.884480
vn -0.823528 -0.360112 0.438315
vt 0.625000 1.000000
vt 0.500000 0.750000
vt 0.750000 0.750000
vt 0.500000 0.500000
vt 0.625000 0.500000
vt 0.750000 0.500000
vt 0.875000 1.000000
vt 1.000000 0.750000
vt 0.875000 0.500000
vt 1.000000 0.500000
vt 0.125000 1.000000
vt 0.000000 0.750000
vt 0.250000 0.750000
vt 0.000000 0.500000
vt 0.125000 0.500000
vt 0.250000 0.500000
vt 0.375000 1.000000
vt 0.375000 0.500000
vt 0.625000 0.000000
vt 0.750000 0.250000
vt 0.500000 0.250000
vt 0.875000 0.000000
vt 1.000000 0.250000
vt 0.125000 0.000000
vt 0.250000 0.250000
vt 0.000000 0.250000
vt 0.375000 0.000000
f 91/136/161 92/137/161 93/138/161
f 92/137/162 94/139/162 95/140/162
f 92/137/163 95/140/163 93/138/163
f 93/138/164 95/140/164 96/141/164
f 91/142/165 93/138/165 97/143/165
f 93/138/166 96/141/166 98/144/166
f 93/138/167 98/144/167 97/143/167
f 97/143/168 98/144/168 99/145/168
f 91/146/169 97/147/169 100/148/169
f 97/147/170 99/149/170 101/150/170
f 97/147/171 101/150/171 100/148/171
f 100/148/172 101/150/172 102/151/172
f 91/152/173 100/148/173 92/137/173
f 100/148/174 102/151/174 103/153/174
f 100/148/175 103/153/175 92/137/175
f 92/137/176 103/153/176 94/139/176
f 104/154/177 105/155/177 106/156/177
f 105/155/178 96/141/178 95/140/178
f 105/155/179 95/140/179 106/156/179
f 106/156/180 95/140/180 94/139/180
f 104/157/181 107/158/181 105/155/181
f 107/158/182 99/145/182 98/144/182
f 107/158/183 98/144/183 105/155/183
f 105/155/184 98/144/184 96/141/184
f 104/159/185 108/160/185 107/161/185
f 108/160/186 102/151/186 101/150/186
f 108/160/187 101/150/187 107/161/187
f 107/161/188 101/150/188 99/149/188
f 104/162/189 106/156/189 108/160/189
f 106/156/190 94/139/190 103/153/190
f 106/156/191 103/153/191 108/160/191
f 108/160/192 103/153/192 102/151/192


#
# GeoSphere032 Mesh
#
g GeoSphere032 Mesh


#
# GeoSphere032 Mesh_wire_087225143
#
usemtl GeoSphere032 Mesh_wire_087225143

v 137.839691 14.573700 -35.477600
v 120.585999 31.877594 -0.805801
v 120.452484 -16.125000 -16.019196
v 78.754395 9.856491 21.450592
v 78.659088 -24.411201 0.884308
v 78.627594 -35.745804 -40.982300
v 120.489990 -2.633911 -70.149490
v 78.678284 -17.507706 -79.624390
v 78.781586 19.619598 -92.405899
v 120.623505 45.368698 -54.936096
v 78.876892 53.887299 -71.839600
v 78.908478 65.221893 -29.972992
v 78.857697 46.983795 8.669098
v 19.696381 14.902390 -35.477692
v 36.923279 -12.016800 -61.218689
v 36.934479 -7.972900 -5.176392
v 37.061493 37.681290 -65.778900
v 37.072784 41.725296 -9.736588
vn 0.871063 -0.129420 0.473814
vn 0.637097 -0.340682 0.691407
vn 0.441528 -0.233378 0.866365
vn 0.368731 -0.875040 0.313596
vn 0.891804 -0.434359 -0.126562
vn 0.670187 -0.643384 -0.370010
vn 0.480047 -0.841940 -0.246355
vn 0.349348 -0.235912 -0.906808
vn 0.871765 0.124580 -0.473820
vn 0.638954 0.337174 -0.691412
vn 0.442854 0.230971 -0.866333
vn 0.373576 0.872982 -0.313598
vn 0.894209 0.429387 0.126558
vn 0.673796 0.639598 0.370018
vn 0.484764 0.839232 0.246359
vn 0.350702 0.233963 0.906791
vn -0.893099 -0.447055 0.050156
vn -0.669176 -0.699259 0.251476
vn -0.482435 -0.870527 0.097153
vn -0.347850 -0.411875 0.842235
vn -0.872558 -0.025125 -0.487865
vn -0.642675 -0.190477 -0.742084
vn -0.444165 -0.049223 -0.894592
vn -0.377493 -0.801873 -0.463140
vn -0.890616 0.451982 -0.050153
vn -0.665308 0.702939 -0.251479
vn -0.477659 0.873157 -0.097156
vn -0.345542 0.413803 -0.842240
vn -0.872394 0.029973 0.487884
vn -0.641604 0.194012 0.742094
vn -0.443879 0.051632 0.894598
vn -0.373016 0.803963 0.463144
vt 0.625000 1.000000
vt 0.500000 0.750000
vt 0.750000 0.750000
vt 0.500000 0.500000
vt 0.625000 0.500000
vt 0.750000 0.500000
vt 0.875000 1.000000
vt 1.000000 0.750000
vt 0.875000 0.500000
vt 1.000000 0.500000
vt 0.125000 1.000000
vt 0.000000 0.750000
vt 0.250000 0.750000
vt 0.000000 0.500000
vt 0.125000 0.500000
vt 0.250000 0.500000
vt 0.375000 1.000000
vt 0.375000 0.500000
vt 0.625000 0.000000
vt 0.750000 0.250000
vt 0.500000 0.250000
vt 0.875000 0.000000
vt 1.000000 0.250000
vt 0.125000 0.000000
vt 0.250000 0.250000
vt 0.000000 0.250000
vt 0.375000 0.000000
f 109/163/193 110/164/193 111/165/193
f 110/164/194 112/166/194 113/167/194
f 110/164/195 113/167/195 111/165/195
f 111/165/196 113/167/196 114/168/196
f 109/169/197 111/165/197 115/170/197
f 111/165/198 114/168/198 116/171/198
f 111/165/199 116/171/199 115/170/199
f 115/170/200 116/171/200 117/172/200
f 109/173/201 115/174/201 118/175/201
f 115/174/202 117/176/202 119/177/202
f 115/174/203 119/177/203 118/175/203
f 118/175/204 119/177/204 120/178/204
f 109/179/205 118/175/205 110/164/205
f 118/175/206 120/178/206 121/180/206
f 118/175/207 121/180/207 110/164/207
f 110/164/208 121/180/208 112/166/208
f 122/181/209 123/182/209 124/183/209
f 123/182/210 114/168/210 113/167/210
f 123/182/211 113/167/211 124/183/211
f 124/183/212 113/167/212 112/166/212
f 122/184/213 125/185/213 123/182/213
f 125/185/214 117/172/214 116/171/214
f 125/185/215 116/171/215 123/182/215
f 123/182/216 116/171/216 114/168/216
f 122/186/217 126/187/217 125/188/217
f 126/187/218 120/178/218 119/177/218
f 126/187/219 119/177/219 125/188/219
f 125/188/220 119/177/220 117/176/220
f 122/189/221 124/183/221 126/187/221
f 124/183/222 112/166/222 121/180/222
f 124/183/223 121/180/223 126/187/223
f 126/187/224 121/180/224 120/178/224
